<svg width="106" height="106" viewBox="0 0 106 106" fill="none" xmlns="http://www.w3.org/2000/svg">
<g clip-path="url(#clip0)">
<path d="M53 23.1875C50.707 23.1875 48.4654 22.5075 46.5588 21.2336C44.6523 19.9597 43.1663 18.149 42.2888 16.0305C41.4113 13.912 41.1817 11.5809 41.629 9.33193C42.0764 7.08296 43.1806 5.01715 44.802 3.39574C46.4234 1.77432 48.4892 0.670123 50.7382 0.222776C52.9871 -0.224572 55.3182 0.00502348 57.4367 0.882527C59.5552 1.76003 61.3659 3.24603 62.6398 5.15261C63.9138 7.05919 64.5937 9.30073 64.5937 11.5938C64.5905 14.6676 63.3679 17.6146 61.1944 19.7881C59.0208 21.9617 56.0738 23.1842 53 23.1875Z" fill="black"/>
<path d="M89.4375 23.3531L89.3443 23.3779L89.2574 23.4048C89.0503 23.4628 88.8433 23.5249 88.6363 23.5891C84.7834 24.7195 66.0844 29.9905 52.911 29.9905C40.6692 29.9905 23.6616 25.4358 18.2208 23.8893C17.6793 23.6799 17.1264 23.5016 16.5646 23.3551C12.631 22.32 9.93957 26.3157 9.93957 29.9677C9.93957 33.5846 13.19 35.3071 16.4714 36.543V36.601L36.1849 42.7581C38.1993 43.5303 38.7376 44.3191 39.0005 45.0023C39.8556 47.1948 39.1724 51.5362 38.9302 53.0517L37.7294 62.3681L31.065 98.8449C31.0443 98.9443 31.0257 99.0458 31.0091 99.1493L30.9615 99.4122C30.4812 102.756 32.9366 106 37.5865 106C41.6443 106 43.4352 103.199 44.2115 99.3874C44.9879 95.5759 50.0084 66.7654 52.9068 66.7654C55.8053 66.7654 61.7761 99.3874 61.7761 99.3874C62.5524 103.199 64.3432 106 68.4011 106C73.0634 106 75.5188 102.741 75.0261 99.3874C74.9837 99.1054 74.9313 98.825 74.8687 98.5468L68.1133 62.3722L66.9146 53.0558C66.0471 47.6296 66.7448 45.8367 66.9808 45.4164C66.9871 45.4065 66.9927 45.3961 66.9974 45.3853C67.221 44.9713 68.2396 44.0438 70.6163 43.1515L89.1 36.69C89.2136 36.6598 89.3255 36.6239 89.4354 36.5824C92.7479 35.3402 96.0604 33.6218 96.0604 29.9719C96.0604 26.3219 93.3711 22.32 89.4375 23.3531Z" fill="black"/>
</g>
<defs>
<clipPath id="clip0">
<rect width="106" height="106" fill="white"/>
</clipPath>
</defs>
</svg>
