<svg width="104" height="105" viewBox="0 0 104 105" fill="none" xmlns="http://www.w3.org/2000/svg">
<path d="M84.5 16.2634C84.4973 13.6784 83.4692 11.2 81.6413 9.37211C79.8134 7.54421 77.335 6.51612 74.75 6.51343H29.25C26.665 6.51612 24.1866 7.54421 22.3587 9.37211C20.5308 11.2 19.5027 13.6784 19.5 16.2634V87.7634C19.5027 90.3485 20.5308 92.8269 22.3587 94.6548C24.1866 96.4827 26.665 97.5107 29.25 97.5134H74.75C77.335 97.5107 79.8134 96.4827 81.6413 94.6548C83.4692 92.8269 84.4973 90.3485 84.5 87.7634V16.2634ZM34.125 87.7634C33.1608 87.7634 32.2183 87.4775 31.4166 86.9418C30.6149 86.4062 29.9901 85.6448 29.6211 84.754C29.2521 83.8632 29.1556 82.883 29.3437 81.9374C29.5318 80.9917 29.9961 80.1231 30.6779 79.4413C31.3596 78.7595 32.2283 78.2952 33.1739 78.1071C34.1196 77.919 35.0998 78.0155 35.9906 78.3845C36.8814 78.7535 37.6427 79.3783 38.1784 80.18C38.7141 80.9817 39 81.9242 39 82.8884C39 84.1814 38.4864 85.4213 37.5721 86.3356C36.6579 87.2498 35.4179 87.7634 34.125 87.7634ZM34.125 71.5134C33.1608 71.5134 32.2183 71.2275 31.4166 70.6918C30.6149 70.1562 29.9901 69.3948 29.6211 68.504C29.2521 67.6132 29.1556 66.633 29.3437 65.6874C29.5318 64.7417 29.9961 63.8731 30.6779 63.1913C31.3596 62.5095 32.2283 62.0452 33.1739 61.8571C34.1196 61.669 35.0998 61.7655 35.9906 62.1345C36.8814 62.5035 37.6427 63.1283 38.1784 63.93C38.7141 64.7317 39 65.6742 39 66.6384C39 67.9314 38.4864 69.1713 37.5721 70.0856C36.6579 70.9998 35.4179 71.5134 34.125 71.5134ZM34.125 55.2634C33.1608 55.2634 32.2183 54.9775 31.4166 54.4418C30.6149 53.9062 29.9901 53.1448 29.6211 52.254C29.2521 51.3632 29.1556 50.383 29.3437 49.4374C29.5318 48.4917 29.9961 47.6231 30.6779 46.9413C31.3596 46.2595 32.2283 45.7952 33.1739 45.6071C34.1196 45.419 35.0998 45.5155 35.9906 45.8845C36.8814 46.2535 37.6427 46.8783 38.1784 47.68C38.7141 48.4817 39 49.4242 39 50.3884C39 51.6814 38.4864 52.9213 37.5721 53.8356C36.6579 54.7498 35.4179 55.2634 34.125 55.2634ZM52 87.7634C51.0358 87.7634 50.0933 87.4775 49.2916 86.9418C48.4899 86.4062 47.8651 85.6448 47.4961 84.754C47.1271 83.8632 47.0306 82.883 47.2187 81.9374C47.4068 80.9917 47.8711 80.1231 48.5529 79.4413C49.2346 78.7595 50.1033 78.2952 51.0489 78.1071C51.9946 77.919 52.9748 78.0155 53.8656 78.3845C54.7564 78.7535 55.5177 79.3783 56.0534 80.18C56.5891 80.9817 56.875 81.9242 56.875 82.8884C56.875 84.1814 56.3614 85.4213 55.4471 86.3356C54.5329 87.2498 53.2929 87.7634 52 87.7634ZM52 71.5134C51.0358 71.5134 50.0933 71.2275 49.2916 70.6918C48.4899 70.1562 47.8651 69.3948 47.4961 68.504C47.1271 67.6132 47.0306 66.633 47.2187 65.6874C47.4068 64.7417 47.8711 63.8731 48.5529 63.1913C49.2346 62.5095 50.1033 62.0452 51.0489 61.8571C51.9946 61.669 52.9748 61.7655 53.8656 62.1345C54.7564 62.5035 55.5177 63.1283 56.0534 63.93C56.5891 64.7317 56.875 65.6742 56.875 66.6384C56.875 67.9314 56.3614 69.1713 55.4471 70.0856C54.5329 70.9998 53.2929 71.5134 52 71.5134ZM52 55.2634C51.0358 55.2634 50.0933 54.9775 49.2916 54.4418C48.4899 53.9062 47.8651 53.1448 47.4961 52.254C47.1271 51.3632 47.0306 50.383 47.2187 49.4374C47.4068 48.4917 47.8711 47.6231 48.5529 46.9413C49.2346 46.2595 50.1033 45.7952 51.0489 45.6071C51.9946 45.419 52.9748 45.5155 53.8656 45.8845C54.7564 46.2535 55.5177 46.8783 56.0534 47.68C56.5891 48.4817 56.875 49.4242 56.875 50.3884C56.875 51.6814 56.3614 52.9213 55.4471 53.8356C54.5329 54.7498 53.2929 55.2634 52 55.2634ZM74.75 82.8884C74.75 84.1814 74.2364 85.4213 73.3221 86.3356C72.4079 87.2498 71.1679 87.7634 69.875 87.7634C68.5821 87.7634 67.3421 87.2498 66.4279 86.3356C65.5136 85.4213 65 84.1814 65 82.8884V66.6384C65 65.3455 65.5136 64.1055 66.4279 63.1913C67.3421 62.277 68.5821 61.7634 69.875 61.7634C71.1679 61.7634 72.4079 62.277 73.3221 63.1913C74.2364 64.1055 74.75 65.3455 74.75 66.6384V82.8884ZM69.875 55.2634C68.9108 55.2634 67.9683 54.9775 67.1666 54.4418C66.3649 53.9062 65.7401 53.1448 65.3711 52.254C65.0021 51.3632 64.9056 50.383 65.0937 49.4374C65.2818 48.4917 65.7461 47.6231 66.4279 46.9413C67.1096 46.2595 67.9783 45.7952 68.9239 45.6071C69.8696 45.419 70.8498 45.5155 71.7406 45.8845C72.6314 46.2535 73.3927 46.8783 73.9284 47.68C74.4641 48.4817 74.75 49.4242 74.75 50.3884C74.75 51.6814 74.2364 52.9213 73.3221 53.8356C72.4079 54.7498 71.1679 55.2634 69.875 55.2634ZM73.7973 34.8108C73.1882 35.4204 72.3618 35.763 71.5 35.7634H32.5C31.638 35.7634 30.8114 35.421 30.2019 34.8115C29.5924 34.202 29.25 33.3754 29.25 32.5134V19.5134C29.25 18.6515 29.5924 17.8248 30.2019 17.2153C30.8114 16.6058 31.638 16.2634 32.5 16.2634H71.5C72.362 16.2634 73.1886 16.6058 73.7981 17.2153C74.4076 17.8248 74.75 18.6515 74.75 19.5134V32.5134C74.7496 33.3752 74.4069 34.2016 73.7973 34.8108Z" fill="black"/>
</svg>
