<svg width="105" height="105" viewBox="0 0 105 105" fill="none" xmlns="http://www.w3.org/2000/svg">
<path d="M91.875 82.0312H13.125C12.2548 82.0312 11.4202 81.6856 10.8048 81.0702C10.1895 80.4548 9.84375 79.6202 9.84375 78.75C9.84375 77.8798 10.1895 77.0452 10.8048 76.4298C11.4202 75.8144 12.2548 75.4688 13.125 75.4688H91.875C92.7452 75.4688 93.5798 75.8144 94.1952 76.4298C94.8105 77.0452 95.1562 77.8798 95.1562 78.75C95.1562 79.6202 94.8105 80.4548 94.1952 81.0702C93.5798 81.6856 92.7452 82.0312 91.875 82.0312ZM85.3125 91.875H19.6875C18.8173 91.875 17.9827 91.5293 17.3673 90.9139C16.752 90.2986 16.4062 89.464 16.4062 88.5938C16.4062 87.7235 16.752 86.8889 17.3673 86.2736C17.9827 85.6582 18.8173 85.3125 19.6875 85.3125H85.3125C86.1827 85.3125 87.0173 85.6582 87.6327 86.2736C88.248 86.8889 88.5938 87.7235 88.5938 88.5938C88.5938 89.464 88.248 90.2986 87.6327 90.9139C87.0173 91.5293 86.1827 91.875 85.3125 91.875ZM6.5625 55.7812H3.28125V65.625C3.28125 67.3655 3.97265 69.0347 5.20336 70.2654C6.43407 71.4961 8.10327 72.1875 9.84375 72.1875H19.6875V68.9062C19.6837 65.4264 18.2997 62.0903 15.8391 59.6297C13.3785 57.1691 10.0423 55.785 6.5625 55.7812Z" fill="black"/>
<path d="M98.4375 49.2188H101.719V36.0938H98.4375C93.2179 36.0878 88.2138 34.0117 84.5229 30.3208C80.8321 26.63 78.756 21.6259 78.75 16.4062V13.125H26.25V16.4062C26.244 21.6259 24.1679 26.63 20.4771 30.3208C16.7862 34.0117 11.7821 36.0878 6.5625 36.0938H3.28125V49.2188H6.5625C11.7821 49.2247 16.7862 51.3008 20.4771 54.9917C24.1679 58.6825 26.244 63.6866 26.25 68.9062V72.1875H78.75V68.9062C78.756 63.6866 80.8321 58.6825 84.5229 54.9917C88.2138 51.3008 93.2179 49.2247 98.4375 49.2188ZM52.5 62.3438C48.6062 62.3438 44.7998 61.1891 41.5622 59.0258C38.3246 56.8625 35.8012 53.7878 34.3111 50.1903C32.821 46.5929 32.4311 42.6344 33.1908 38.8154C33.9504 34.9964 35.8255 31.4884 38.5788 28.7351C41.3322 25.9817 44.8402 24.1067 48.6592 23.347C52.4782 22.5874 56.4367 22.9773 60.0341 24.4674C63.6315 25.9575 66.7063 28.4809 68.8696 31.7185C71.0328 34.9561 72.1875 38.7624 72.1875 42.6562C72.1815 47.8759 70.1054 52.88 66.4146 56.5708C62.7237 60.2617 57.7196 62.3378 52.5 62.3438Z" fill="black"/>
<path d="M52.5 55.7812C59.7487 55.7812 65.625 49.905 65.625 42.6562C65.625 35.4075 59.7487 29.5312 52.5 29.5312C45.2513 29.5312 39.375 35.4075 39.375 42.6562C39.375 49.905 45.2513 55.7812 52.5 55.7812Z" fill="black"/>
<path d="M85.3125 68.9062V72.1875H95.1562C96.8967 72.1875 98.5659 71.4961 99.7966 70.2654C101.027 69.0347 101.719 67.3655 101.719 65.625V55.7812H98.4375C94.9577 55.785 91.6215 57.1691 89.1609 59.6297C86.7003 62.0903 85.3163 65.4264 85.3125 68.9062ZM98.4375 29.5312H101.719V19.6875C101.719 17.947 101.027 16.2778 99.7966 15.0471C98.5659 13.8164 96.8967 13.125 95.1562 13.125H85.3125V16.4062C85.3163 19.8861 86.7003 23.2222 89.1609 25.6828C91.6215 28.1434 94.9577 29.5275 98.4375 29.5312ZM19.6875 16.4062V13.125H9.84375C8.10327 13.125 6.43407 13.8164 5.20336 15.0471C3.97265 16.2778 3.28125 17.947 3.28125 19.6875V29.5312H6.5625C10.0423 29.5275 13.3785 28.1434 15.8391 25.6828C18.2997 23.2222 19.6837 19.8861 19.6875 16.4062Z" fill="black"/>
</svg>
