<svg width="105" height="105" viewBox="0 0 105 105" fill="none" xmlns="http://www.w3.org/2000/svg">
<path d="M88.5938 36.0938H65.625V13.125C65.625 10.5143 64.5879 8.01048 62.7418 6.16442C60.8958 4.31836 58.392 3.28125 55.7812 3.28125H16.4062C13.7955 3.28125 11.2917 4.31836 9.44567 6.16442C7.59961 8.01048 6.5625 10.5143 6.5625 13.125V98.4375C6.5625 99.3077 6.9082 100.142 7.52356 100.758C8.13891 101.373 8.97351 101.719 9.84375 101.719H31.1719C31.607 101.719 32.0243 101.546 32.332 101.238C32.6397 100.931 32.8125 100.513 32.8125 100.078V85.4048C32.8125 83.6391 34.1701 82.1235 35.9358 82.0353C36.3795 82.014 36.8229 82.0829 37.2391 82.2379C37.6553 82.393 38.0358 82.6309 38.3573 82.9373C38.6789 83.2437 38.9349 83.6122 39.1098 84.0205C39.2847 84.4288 39.375 84.8683 39.375 85.3125V100.078C39.375 100.513 39.5479 100.931 39.8555 101.238C40.1632 101.546 40.5805 101.719 41.0156 101.719H95.1562C96.0265 101.719 96.8611 101.373 97.4764 100.758C98.0918 100.142 98.4375 99.3077 98.4375 98.4375V45.9375C98.4375 43.3268 97.4004 40.823 95.5543 38.9769C93.7083 37.1309 91.2045 36.0938 88.5938 36.0938ZM20.1141 88.5671C19.4345 88.656 18.7442 88.5298 18.1399 88.2064C17.5357 87.8829 17.0479 87.3784 16.7451 86.7636C16.4422 86.1488 16.3395 85.4545 16.4512 84.7784C16.563 84.1022 16.8837 83.478 17.3684 82.9934C17.853 82.5087 18.4772 82.188 19.1534 82.0762C19.8295 81.9644 20.5237 82.0672 21.1386 82.3701C21.7534 82.6729 22.2579 83.1607 22.5814 83.7649C22.9048 84.3691 23.031 85.0595 22.9421 85.7391C22.8483 86.4562 22.5202 87.1223 22.0087 87.6337C21.4973 88.1452 20.8312 88.4733 20.1141 88.5671ZM20.1141 72.1608C19.4345 72.2497 18.7442 72.1236 18.1399 71.8001C17.5357 71.4767 17.0479 70.9721 16.7451 70.3573C16.4422 69.7425 16.3395 69.0483 16.4512 68.3721C16.563 67.6959 16.8837 67.0717 17.3684 66.5871C17.853 66.1025 18.4772 65.7818 19.1534 65.67C19.8295 65.5582 20.5237 65.661 21.1386 65.9638C21.7534 66.2667 22.2579 66.7545 22.5814 67.3587C22.9048 67.9629 23.031 68.6532 22.9421 69.3328C22.8483 70.05 22.5202 70.7161 22.0087 71.2275C21.4973 71.7389 20.8312 72.067 20.1141 72.1608ZM20.1141 55.7546C19.4345 55.8435 18.7442 55.7173 18.1399 55.3939C17.5357 55.0704 17.0479 54.5659 16.7451 53.9511C16.4422 53.3363 16.3395 52.642 16.4512 51.9659C16.563 51.2897 16.8837 50.6655 17.3684 50.1809C17.853 49.6962 18.4772 49.3755 19.1534 49.2637C19.8295 49.152 20.5237 49.2547 21.1386 49.5576C21.7534 49.8604 22.2579 50.3482 22.5814 50.9524C22.9048 51.5567 23.031 52.247 22.9421 52.9266C22.8483 53.6437 22.5202 54.3098 22.0087 54.8212C21.4973 55.3327 20.8312 55.6608 20.1141 55.7546ZM20.1141 39.3483C19.4345 39.4372 18.7442 39.3111 18.1399 38.9876C17.5357 38.6642 17.0479 38.1596 16.7451 37.5448C16.4422 36.93 16.3395 36.2358 16.4512 35.5596C16.563 34.8834 16.8837 34.2592 17.3684 33.7746C17.853 33.29 18.4772 32.9693 19.1534 32.8575C19.8295 32.7457 20.5237 32.8485 21.1386 33.1513C21.7534 33.4542 22.2579 33.942 22.5814 34.5462C22.9048 35.1504 23.031 35.8407 22.9421 36.5203C22.8483 37.2375 22.5202 37.9036 22.0087 38.415C21.4973 38.9264 20.8312 39.2545 20.1141 39.3483ZM20.1141 22.9421C19.4345 23.031 18.7442 22.9048 18.1399 22.5814C17.5357 22.2579 17.0479 21.7534 16.7451 21.1386C16.4422 20.5237 16.3395 19.8295 16.4512 19.1534C16.563 18.4772 16.8837 17.853 17.3684 17.3684C17.853 16.8837 18.4772 16.563 19.1534 16.4512C19.8295 16.3395 20.5237 16.4422 21.1386 16.7451C21.7534 17.0479 22.2579 17.5357 22.5814 18.1399C22.9048 18.7442 23.031 19.4345 22.9421 20.1141C22.8483 20.8312 22.5202 21.4973 22.0087 22.0087C21.4973 22.5202 20.8312 22.8483 20.1141 22.9421ZM36.5203 72.1608C35.8407 72.2497 35.1504 72.1236 34.5462 71.8001C33.942 71.4767 33.4542 70.9721 33.1513 70.3573C32.8485 69.7425 32.7457 69.0483 32.8575 68.3721C32.9693 67.6959 33.29 67.0717 33.7746 66.5871C34.2592 66.1025 34.8834 65.7818 35.5596 65.67C36.2358 65.5582 36.93 65.661 37.5448 65.9638C38.1596 66.2667 38.6642 66.7545 38.9876 67.3587C39.3111 67.9629 39.4372 68.6532 39.3483 69.3328C39.2545 70.05 38.9264 70.7161 38.415 71.2275C37.9036 71.7389 37.2375 72.067 36.5203 72.1608ZM36.5203 55.7546C35.8407 55.8435 35.1504 55.7173 34.5462 55.3939C33.942 55.0704 33.4542 54.5659 33.1513 53.9511C32.8485 53.3363 32.7457 52.642 32.8575 51.9659C32.9693 51.2897 33.29 50.6655 33.7746 50.1809C34.2592 49.6962 34.8834 49.3755 35.5596 49.2637C36.2358 49.152 36.93 49.2547 37.5448 49.5576C38.1596 49.8604 38.6642 50.3482 38.9876 50.9524C39.3111 51.5567 39.4372 52.247 39.3483 52.9266C39.2545 53.6437 38.9264 54.3098 38.415 54.8212C37.9036 55.3327 37.2375 55.6608 36.5203 55.7546ZM36.5203 39.3483C35.8407 39.4372 35.1504 39.3111 34.5462 38.9876C33.942 38.6642 33.4542 38.1596 33.1513 37.5448C32.8485 36.93 32.7457 36.2358 32.8575 35.5596C32.9693 34.8834 33.29 34.2592 33.7746 33.7746C34.2592 33.29 34.8834 32.9693 35.5596 32.8575C36.2358 32.7457 36.93 32.8485 37.5448 33.1513C38.1596 33.4542 38.6642 33.942 38.9876 34.5462C39.3111 35.1504 39.4372 35.8407 39.3483 36.5203C39.2545 37.2375 38.9264 37.9036 38.415 38.415C37.9036 38.9264 37.2375 39.2545 36.5203 39.3483ZM36.5203 22.9421C35.8407 23.031 35.1504 22.9048 34.5462 22.5814C33.942 22.2579 33.4542 21.7534 33.1513 21.1386C32.8485 20.5237 32.7457 19.8295 32.8575 19.1534C32.9693 18.4772 33.29 17.853 33.7746 17.3684C34.2592 16.8837 34.8834 16.563 35.5596 16.4512C36.2358 16.3395 36.93 16.4422 37.5448 16.7451C38.1596 17.0479 38.6642 17.5357 38.9876 18.1399C39.3111 18.7442 39.4372 19.4345 39.3483 20.1141C39.2545 20.8312 38.9264 21.4973 38.415 22.0087C37.9036 22.5202 37.2375 22.8483 36.5203 22.9421ZM52.9266 88.5671C52.247 88.656 51.5567 88.5298 50.9524 88.2064C50.3482 87.8829 49.8604 87.3784 49.5576 86.7636C49.2547 86.1488 49.152 85.4545 49.2637 84.7784C49.3755 84.1022 49.6962 83.478 50.1809 82.9934C50.6655 82.5087 51.2897 82.188 51.9659 82.0762C52.642 81.9644 53.3363 82.0672 53.9511 82.3701C54.5659 82.6729 55.0704 83.1607 55.3939 83.7649C55.7173 84.3691 55.8435 85.0595 55.7546 85.7391C55.6608 86.4562 55.3327 87.1223 54.8212 87.6337C54.3098 88.1452 53.6437 88.4733 52.9266 88.5671ZM52.9266 72.1608C52.247 72.2497 51.5567 72.1236 50.9524 71.8001C50.3482 71.4767 49.8604 70.9721 49.5576 70.3573C49.2547 69.7425 49.152 69.0483 49.2637 68.3721C49.3755 67.6959 49.6962 67.0717 50.1809 66.5871C50.6655 66.1025 51.2897 65.7818 51.9659 65.67C52.642 65.5582 53.3363 65.661 53.9511 65.9638C54.5659 66.2667 55.0704 66.7545 55.3939 67.3587C55.7173 67.9629 55.8435 68.6532 55.7546 69.3328C55.6608 70.05 55.3327 70.7161 54.8212 71.2275C54.3098 71.7389 53.6437 72.067 52.9266 72.1608ZM52.9266 55.7546C52.247 55.8435 51.5567 55.7173 50.9524 55.3939C50.3482 55.0704 49.8604 54.5659 49.5576 53.9511C49.2547 53.3363 49.152 52.642 49.2637 51.9659C49.3755 51.2897 49.6962 50.6655 50.1809 50.1809C50.6655 49.6962 51.2897 49.3755 51.9659 49.2637C52.642 49.152 53.3363 49.2547 53.9511 49.5576C54.5659 49.8604 55.0704 50.3482 55.3939 50.9524C55.7173 51.5567 55.8435 52.247 55.7546 52.9266C55.6608 53.6437 55.3327 54.3098 54.8212 54.8212C54.3098 55.3327 53.6437 55.6608 52.9266 55.7546ZM52.9266 39.3483C52.247 39.4372 51.5567 39.3111 50.9524 38.9876C50.3482 38.6642 49.8604 38.1596 49.5576 37.5448C49.2547 36.93 49.152 36.2358 49.2637 35.5596C49.3755 34.8834 49.6962 34.2592 50.1809 33.7746C50.6655 33.29 51.2897 32.9693 51.9659 32.8575C52.642 32.7457 53.3363 32.8485 53.9511 33.1513C54.5659 33.4542 55.0704 33.942 55.3939 34.5462C55.7173 35.1504 55.8435 35.8407 55.7546 36.5203C55.6608 37.2375 55.3327 37.9036 54.8212 38.415C54.3098 38.9264 53.6437 39.2545 52.9266 39.3483ZM52.9266 22.9421C52.247 23.031 51.5567 22.9048 50.9524 22.5814C50.3482 22.2579 49.8604 21.7534 49.5576 21.1386C49.2547 20.5237 49.152 19.8295 49.2637 19.1534C49.3755 18.4772 49.6962 17.853 50.1809 17.3684C50.6655 16.8837 51.2897 16.563 51.9659 16.4512C52.642 16.3395 53.3363 16.4422 53.9511 16.7451C54.5659 17.0479 55.0704 17.5357 55.3939 18.1399C55.7173 18.7442 55.8435 19.4345 55.7546 20.1141C55.6608 20.8312 55.3327 21.4973 54.8212 22.0087C54.3098 22.5202 53.6437 22.8483 52.9266 22.9421ZM91.0547 95.1562H65.625V42.6562H88.5938C89.464 42.6562 90.2986 43.002 90.9139 43.6173C91.5293 44.2327 91.875 45.0673 91.875 45.9375V94.3359C91.875 94.5535 91.7886 94.7621 91.6347 94.916C91.4809 95.0698 91.2722 95.1562 91.0547 95.1562Z" fill="black"/>
<path d="M82.0312 82.0313C81.3823 82.0313 80.7479 82.2237 80.2083 82.5842C79.6687 82.9448 79.2481 83.4573 78.9998 84.0568C78.7514 84.6564 78.6864 85.3161 78.813 85.9526C78.9397 86.5891 79.2522 87.1738 79.7111 87.6327C80.1699 88.0916 80.7546 88.4041 81.3911 88.5307C82.0276 88.6573 82.6874 88.5923 83.2869 88.344C83.8865 88.0956 84.399 87.6751 84.7595 87.1355C85.1201 86.5959 85.3125 85.9615 85.3125 85.3125C85.3125 84.4423 84.9668 83.6077 84.3514 82.9923C83.7361 82.377 82.9015 82.0313 82.0312 82.0313ZM82.0312 65.625C81.3823 65.625 80.7479 65.8174 80.2083 66.178C79.6687 66.5385 79.2481 67.051 78.9998 67.6506C78.7514 68.2501 78.6864 68.9099 78.813 69.5464C78.9397 70.1829 79.2522 70.7676 79.7111 71.2264C80.1699 71.6853 80.7546 71.9978 81.3911 72.1245C82.0276 72.2511 82.6874 72.1861 83.2869 71.9377C83.8865 71.6894 84.399 71.2688 84.7595 70.7292C85.1201 70.1896 85.3125 69.5552 85.3125 68.9063C85.3125 68.036 84.9668 67.2014 84.3514 66.5861C83.7361 65.9707 82.9015 65.625 82.0312 65.625ZM82.0312 49.2188C81.3823 49.2188 80.7479 49.4112 80.2083 49.7717C79.6687 50.1323 79.2481 50.6447 78.9998 51.2443C78.7514 51.8439 78.6864 52.5036 78.813 53.1401C78.9397 53.7766 79.2522 54.3613 79.7111 54.8202C80.1699 55.2791 80.7546 55.5916 81.3911 55.7182C82.0276 55.8448 82.6874 55.7798 83.2869 55.5315C83.8865 55.2831 84.399 54.8626 84.7595 54.323C85.1201 53.7834 85.3125 53.149 85.3125 52.5C85.3125 51.6298 84.9668 50.7952 84.3514 50.1798C83.7361 49.5645 82.9015 49.2188 82.0312 49.2188ZM68.9063 82.0313C68.2573 82.0313 67.6229 82.2237 67.0833 82.5842C66.5437 82.9448 66.1231 83.4573 65.8748 84.0568C65.6264 84.6564 65.5614 85.3161 65.688 85.9526C65.8147 86.5891 66.1272 87.1738 66.5861 87.6327C67.0449 88.0916 67.6296 88.4041 68.2661 88.5307C68.9026 88.6573 69.5624 88.5923 70.1619 88.344C70.7615 88.0956 71.274 87.6751 71.6345 87.1355C71.9951 86.5959 72.1875 85.9615 72.1875 85.3125C72.1875 84.4423 71.8418 83.6077 71.2264 82.9923C70.6111 82.377 69.7765 82.0313 68.9063 82.0313ZM68.9063 65.625C68.2573 65.625 67.6229 65.8174 67.0833 66.178C66.5437 66.5385 66.1231 67.051 65.8748 67.6506C65.6264 68.2501 65.5614 68.9099 65.688 69.5464C65.8147 70.1829 66.1272 70.7676 66.5861 71.2264C67.0449 71.6853 67.6296 71.9978 68.2661 72.1245C68.9026 72.2511 69.5624 72.1861 70.1619 71.9377C70.7615 71.6894 71.274 71.2688 71.6345 70.7292C71.9951 70.1896 72.1875 69.5552 72.1875 68.9063C72.1875 68.036 71.8418 67.2014 71.2264 66.5861C70.6111 65.9707 69.7765 65.625 68.9063 65.625ZM68.9063 49.2188C68.2573 49.2188 67.6229 49.4112 67.0833 49.7717C66.5437 50.1323 66.1231 50.6447 65.8748 51.2443C65.6264 51.8439 65.5614 52.5036 65.688 53.1401C65.8147 53.7766 66.1272 54.3613 66.5861 54.8202C67.0449 55.2791 67.6296 55.5916 68.2661 55.7182C68.9026 55.8448 69.5624 55.7798 70.1619 55.5315C70.7615 55.2831 71.274 54.8626 71.6345 54.323C71.9951 53.7834 72.1875 53.149 72.1875 52.5C72.1875 51.6298 71.8418 50.7952 71.2264 50.1798C70.6111 49.5645 69.7765 49.2188 68.9063 49.2188Z" fill="black"/>
</svg>
